<svg viewBox="0 0 28 28" fill="none" xmlns="http://www.w3.org/2000/svg">
  <path d="M24.4858 14C24.4858 11.0525 23.4745 8.59341 21.4405 6.55946C19.4067 4.52552 16.9476 3.51418 14 3.51418C11.0524 3.51418 8.59341 4.5255 6.55946 6.55946C4.5255 8.59341 3.51418 11.0524 3.51418 14C3.51418 16.9476 4.52552 19.4067 6.55946 21.4405C8.59341 23.4745 11.0525 24.4858 14 24.4858C16.9476 24.4858 19.4067 23.4745 21.4405 21.4405L21.8102 21.0537C23.597 19.0969 24.4858 16.7632 24.4858 14ZM7.69676 10.3916C8.00987 10.2852 8.34633 10.2705 8.67708 10.3663L8.84216 10.424L8.85026 10.4271L8.85735 10.4301C9.22954 10.5882 9.50253 10.8597 9.67564 11.1866L9.7445 11.3304L9.80122 11.4844C9.91672 11.8456 9.91006 12.2228 9.78906 12.5822L9.78299 12.5984L9.77792 12.6146C9.69306 12.8414 9.63653 13.0581 9.60576 13.2648L9.60475 13.2688C9.57015 13.4956 9.55211 13.7418 9.55208 14.0081C9.55208 14.5249 9.63838 15.018 9.81134 15.4918L9.89135 15.6943V15.6953C10.1177 16.2337 10.44 16.7115 10.8636 17.1344L10.8646 17.1364C11.3385 17.611 11.8917 17.9277 12.5386 18.1005C12.4755 17.9601 12.4285 17.8067 12.409 17.6398L12.3989 17.4565L12.409 17.2731C12.458 16.8567 12.669 16.5208 12.9123 16.2756L13.0328 16.1642C13.3263 15.9157 13.7114 15.7461 14.1661 15.7703H14.1722C14.6081 15.794 14.9907 15.978 15.2852 16.2726L17.4787 18.4661C17.8927 18.8802 18.1309 19.4107 18.1309 20.0136C18.1309 20.6161 17.8924 21.1457 17.4797 21.56L17.4787 21.5621L15.2801 23.7607C14.9999 24.0372 14.601 24.2721 14.0992 24.2721C13.5969 24.2721 13.1983 24.0363 12.9184 23.7587C12.6099 23.4524 12.3831 23.0206 12.413 22.4978L12.4293 22.3378C12.4725 22.0508 12.5874 21.79 12.7584 21.5661C12.3795 21.5007 12.002 21.4216 11.6272 21.3241V21.3231C10.4109 21.0075 9.35639 20.3948 8.48264 19.4941V19.4931C7.7591 18.7667 7.19663 17.9307 6.8015 16.9896V16.9886C6.40373 16.0387 6.20501 15.0397 6.20501 14C6.20501 13.5533 6.24532 13.1126 6.32653 12.6794C6.40444 12.263 6.51077 11.8522 6.64554 11.4479L6.64656 11.4469C6.7945 11.0055 7.10271 10.6494 7.54282 10.4524L7.69676 10.3916ZM14.1013 17.4554L14.3818 17.1759L14.5519 17.0058L14.1013 17.4554ZM28 14C28 15.9244 27.6322 17.7479 26.8921 19.4606V19.4617C26.1597 21.1532 25.1623 22.6356 23.8994 23.8984C22.6357 25.1621 21.1534 26.1596 19.4617 26.8911V26.89C17.7495 27.6314 15.9255 28 14 28C12.1952 28 10.4794 27.677 8.8614 27.0268L8.53834 26.8921C6.8468 26.1597 5.36439 25.1623 4.10156 23.8994C2.83786 22.6357 1.84043 21.1533 1.10894 19.4617V19.4606C0.367888 17.7489 0 15.9251 0 14C0 12.0747 0.367618 10.2504 1.10793 8.53834C1.83955 6.84642 2.83761 5.36448 4.10258 4.10156C5.3668 2.83941 6.84812 1.84129 8.53733 1.10793H8.53834C10.2512 0.367751 12.0755 0 14 0C15.9244 0 17.7479 0.367839 19.4606 1.10793H19.4617C21.153 1.84028 22.6347 2.83803 23.8974 4.10156C25.1614 5.36449 26.1595 6.84648 26.8911 8.53834C27.6322 10.2513 28 12.0753 28 14ZM15.6305 10.5446C15.6305 10.9835 15.4518 11.3457 15.2153 11.6201L15.111 11.7325C14.8049 12.0364 14.3778 12.2582 13.8623 12.2318C13.4236 12.2093 13.0375 12.0247 12.7412 11.7264V11.7254L10.5516 9.53588C10.1367 9.12239 9.89651 8.59232 9.89641 7.98843C9.89641 7.38458 10.1359 6.8539 10.5496 6.43996L12.7432 4.24436L12.7462 4.24233C13.0299 3.96054 13.4276 3.73187 13.922 3.72888L14.1063 3.739C14.5253 3.78574 14.8645 3.99604 15.113 4.24436H15.114C15.3824 4.51282 15.5874 4.87629 15.6143 5.31178V5.50217C15.5946 5.84728 15.4751 6.1637 15.274 6.43287C15.6503 6.49658 16.025 6.57532 16.3971 6.67086H16.3961C17.6141 6.98224 18.6723 7.59381 19.5518 8.49479H19.5508C20.2817 9.22783 20.8463 10.0695 21.237 11.0155V11.0165C21.6286 11.9652 21.8234 12.9624 21.8234 14C21.8234 14.4465 21.784 14.8911 21.7038 15.3328L21.7028 15.3348C21.6245 15.7614 21.5169 16.1777 21.3818 16.5835L21.3828 16.5845C21.2521 16.9813 20.9883 17.3127 20.6091 17.5122L20.4389 17.5891C20.0362 17.746 19.5997 17.7515 19.1872 17.5851L19.1801 17.582L19.172 17.578C18.7388 17.395 18.4441 17.0579 18.2818 16.6675C18.1145 16.2646 18.1005 15.8334 18.2363 15.4219L18.2433 15.4016L18.2514 15.3804C18.3368 15.1542 18.392 14.939 18.4226 14.7342C18.4566 14.5061 18.4752 14.2591 18.4753 13.9919V13.9899C18.476 13.3996 18.3638 12.8408 18.138 12.3057C17.9103 11.766 17.5872 11.2868 17.1638 10.8626C16.6907 10.3896 16.1384 10.0719 15.4907 9.89945C15.5768 10.0908 15.6305 10.3062 15.6305 10.5446Z" fill="currentColor"/>
</svg>
