<svg viewBox="0 0 28 28" fill="none" xmlns="http://www.w3.org/2000/svg">
  <path d="M25.8555 17.516C25.8555 16.6325 25.6246 15.9712 25.1742 15.4359C24.7096 14.8838 23.956 14.3985 22.7938 13.9857V13.9864C22.505 13.884 22.2921 13.6686 22.1767 13.4202C22.0619 13.1731 22.042 12.893 22.1154 12.6351L22.1479 12.5384C22.2336 12.3164 22.3928 12.1152 22.6186 11.9847L22.6194 11.984C22.8496 11.8514 23.1222 11.8098 23.3835 11.8712L23.4951 11.9034V11.9041C24.9405 12.4173 26.0787 13.1132 26.854 14.0633C27.6397 15.0262 28.0002 16.1852 28.0002 17.516C28.0001 19.2616 27.0505 20.9217 25.4772 22.2679V24.8995C25.4769 25.0493 25.4476 25.1997 25.3877 25.3404L25.387 25.3411C25.3269 25.4819 25.2359 25.6124 25.1165 25.7213L25.1173 25.722C24.9971 25.8316 24.8499 25.9164 24.6842 25.9622H24.6835C24.5192 26.0075 24.3465 26.0116 24.1794 25.9747C24.0388 25.9439 22.7631 25.6265 21.533 24.3773C21.2016 24.4758 20.7732 24.5941 20.3062 24.5941C18.4968 24.5941 17.1395 24.1719 15.8041 23.1578L15.5373 22.9469C15.3124 22.7623 15.1811 22.5037 15.1449 22.2401V22.2393C15.1091 21.9759 15.1659 21.6989 15.3193 21.4666H15.3201C15.4743 21.2331 15.7238 21.0508 16.0318 20.9986C16.342 20.9461 16.6467 21.0367 16.8757 21.2242C17.8885 22.0542 18.8485 22.3909 20.3062 22.391C20.4877 22.391 20.7073 22.3305 21.0556 22.2262H21.0563C21.236 22.1726 21.4489 22.1081 21.6631 22.0621H21.6638C21.8619 22.0197 22.0664 22.0361 22.2536 22.1068C22.4402 22.1773 22.5967 22.2969 22.7125 22.4422C22.9014 22.6794 23.1107 22.8915 23.3333 23.0794V21.7332C23.3335 21.5701 23.369 21.4055 23.4412 21.2528L23.5018 21.1407C23.5693 21.0321 23.6568 20.9331 23.7634 20.8514C24.1758 20.5349 24.712 20.0604 25.1394 19.4715C25.567 18.8825 25.8555 18.2218 25.8555 17.516Z" fill="currentColor"/>
  <path d="M20.1804 12.2422C20.1804 7.70522 16.4275 4.20313 11.2738 4.20313C6.06851 4.20314 2.1439 7.80278 2.1439 12.2437C2.14393 14.8609 3.89569 16.8101 5.49683 18.0386L5.59734 18.1257C5.66024 18.1876 5.7141 18.2561 5.75918 18.3286L5.82052 18.4399L5.86708 18.5564C5.90754 18.6748 5.92765 18.7986 5.92768 18.9219V21.7666C6.6033 21.2488 7.40353 20.5371 8.12479 19.6301L8.12996 19.6235C8.21685 19.5168 8.32577 19.4249 8.45217 19.3562L8.58446 19.2954C8.76812 19.226 8.96881 19.2085 9.16459 19.2478L9.17346 19.2493C9.98353 19.4216 10.852 19.5818 11.5893 19.5818C14.2397 19.5818 16.3881 18.8123 17.8621 17.5369C19.3272 16.2691 20.1804 14.4564 20.1804 12.2422ZM22.3243 12.2422C22.3243 15.072 21.2395 17.4789 19.3195 19.1709C17.4073 20.856 14.7224 21.7848 11.5901 21.7849C10.8491 21.7849 10.064 21.6655 9.36191 21.5315C7.49851 23.6571 5.45729 24.6963 5.32464 24.7622L5.32242 24.7637C5.15223 24.8476 4.96024 24.8847 4.76594 24.8677V24.8684C4.57077 24.8514 4.38989 24.7804 4.23976 24.6721C4.09001 24.5641 3.97546 24.4225 3.89907 24.2671C3.82298 24.1122 3.78474 23.9436 3.78378 23.7756V19.4602C2.0146 17.9926 3.09835e-05 15.5909 0 12.2437C0 6.44174 5.02624 2.00001 11.2738 2C17.5074 2 22.3243 6.36669 22.3243 12.2422Z" fill="currentColor"/>
  <path d="M6.71178 12.3088L6.70956 12.2634C6.64974 12.2664 6.61362 12.2937 6.60019 12.3088C6.61348 12.3238 6.64947 12.3519 6.70956 12.3549L6.71178 12.3088ZM11.1267 12.2422L11.1245 12.196C11.0646 12.199 11.0279 12.2269 11.0144 12.2422C11.0279 12.2573 11.0643 12.2853 11.1245 12.2883L11.1267 12.2422ZM15.5409 12.2422L15.5386 12.196C15.4782 12.199 15.4417 12.2272 15.4285 12.2422C15.4416 12.257 15.478 12.2852 15.5386 12.2883L15.5409 12.2422ZM15.6118 12.2487L15.614 12.2883C15.6745 12.2853 15.7115 12.2573 15.7249 12.2422C15.7115 12.227 15.6749 12.199 15.6148 12.196L15.6118 12.2487ZM6.78568 12.3549C6.84619 12.3519 6.88268 12.3238 6.8958 12.3088C6.88253 12.2938 6.84593 12.2664 6.78568 12.2634L6.78347 12.3088L6.78568 12.3549ZM8.76552 12.3088C8.76552 13.413 7.94274 14.4649 6.74799 14.4651C5.55314 14.4651 4.72973 13.4131 4.72973 12.3088C4.72982 11.2047 5.55318 10.1526 6.74799 10.1526C7.9427 10.1527 8.76543 11.2048 8.76552 12.3088ZM11.1999 12.2883C11.2604 12.2853 11.2968 12.2571 11.31 12.2422C11.2967 12.2272 11.2601 12.199 11.1999 12.196L11.1976 12.2422L11.1999 12.2883ZM13.1804 12.2422C13.1804 13.3464 12.3571 14.3984 11.1622 14.3984C9.96732 14.3984 9.1439 13.3463 9.1439 12.2422C9.14393 11.1379 9.96732 10.0859 11.1622 10.0859C12.3571 10.0859 13.1804 11.1379 13.1804 12.2422ZM17.5946 12.2422C17.5946 13.3464 16.7711 14.3984 15.5763 14.3984C14.3816 14.3982 13.5588 13.3463 13.5588 12.2422C13.5588 11.138 14.3816 10.0861 15.5763 10.0859C16.7711 10.0859 17.5946 11.1379 17.5946 12.2422Z" fill="currentColor"/>
</svg>
