<svg viewBox="0 0 28 28" fill="none" xmlns="http://www.w3.org/2000/svg">
  <path fill-rule="evenodd" clip-rule="evenodd" d="M6.87097 7.00876C6.87097 6.08836 7.05537 5.17697 7.41363 4.32663C7.7719 3.47629 8.29702 2.70364 8.95902 2.05282C9.62101 1.40199 10.4069 0.885733 11.2718 0.53351C12.1367 0.181287 13.0638 0 14 0C14.9362 0 15.8633 0.181287 16.7281 0.53351C17.5931 0.885733 18.379 1.40199 19.041 2.05282C19.7029 2.70364 20.2281 3.47629 20.5863 4.32663C20.9446 5.17697 21.129 6.08836 21.129 7.00876C21.129 8.8676 20.3779 10.6503 19.041 11.9647C17.7041 13.2791 15.8907 14.0175 14 14.0175C12.1093 14.0175 10.296 13.2791 8.95902 11.9647C7.62205 10.6503 6.87097 8.8676 6.87097 7.00876ZM14 2.47368C12.7765 2.47368 11.6033 2.95148 10.7382 3.80198C9.87309 4.65246 9.3871 5.80598 9.3871 7.00876C9.3871 8.21154 9.87309 9.36505 10.7382 10.2156C11.6033 11.066 12.7765 11.5439 14 11.5439C15.2235 11.5439 16.3967 11.066 17.2619 10.2156C18.1269 9.36505 18.6129 8.21154 18.6129 7.00876C18.6129 5.80598 18.1269 4.65246 17.2619 3.80198C16.3967 2.95148 15.2235 2.47368 14 2.47368ZM7.29033 18.9648C6.28935 18.9648 5.32936 19.3558 4.62156 20.0516C3.91377 20.7475 3.51612 21.6913 3.51612 22.6754V24.6345C3.51612 24.6643 3.53793 24.6906 3.56813 24.6956C10.4774 25.8038 17.5242 25.8038 24.4318 24.6956C24.4461 24.6924 24.4589 24.6846 24.4683 24.6736C24.4777 24.6626 24.4831 24.6489 24.4838 24.6345V22.6754C24.4838 21.6913 24.0862 20.7475 23.3784 20.0516C22.6707 19.3558 21.7107 18.9648 20.7097 18.9648H20.1393C20.0945 18.9657 20.0499 18.9723 20.0068 18.9846L18.5558 19.4514C15.5956 20.4016 12.4044 20.4016 9.44413 19.4514L7.99148 18.9846C7.94949 18.9726 7.90607 18.966 7.86233 18.9648H7.29033ZM1 22.6754C1 21.0353 1.66273 19.4623 2.84239 18.3025C4.02205 17.1428 5.62202 16.4912 7.29033 16.4912H7.86064C8.17376 16.4923 8.47793 16.5396 8.77316 16.6331L10.2258 17.0997C12.6783 17.8868 15.3217 17.8868 17.7742 17.0997L19.2268 16.6331C19.5204 16.539 19.829 16.4912 20.1377 16.4912H20.7097C22.3779 16.4912 23.978 17.1428 25.1576 18.3025C26.3373 19.4623 27 21.0353 27 22.6754V24.6345C27 25.878 26.0842 26.9368 24.8362 27.1363C17.6596 28.2879 10.3405 28.2879 3.16388 27.1363C2.56031 27.0387 2.01156 26.7336 1.61531 26.2755C1.21906 25.8174 1.00102 25.2359 1 24.6345V22.6754Z" fill="currentColor"/>
</svg>
